<svg xmlns="http://www.w3.org/2000/svg" xmlns:xlink="http://www.w3.org/1999/xlink" width="262" height="14"><defs><path id="a" d="M1108 407a3 3 0 0 1 3-3h256a3 3 0 0 1 0 6h-256a3 3 0 0 1-3-3z"/><path id="b" d="M1139 410v-6h124v6z"/><path id="c" d="M1138 400a7 7 0 1 1 0 14 7 7 0 0 1 0-14z"/><path id="d" d="M1262 400a7 7 0 1 1 0 14 7 7 0 0 1 0-14z"/></defs><use fill="#f0f0f0" xlink:href="#a" transform="translate(-1108 -400)"/><use fill="#f16d7f" xlink:href="#b" transform="translate(-1108 -400)"/><use fill="#f16d7f" xlink:href="#c" transform="translate(-1108 -400)"/><use fill="#f16d7f" xlink:href="#d" transform="translate(-1108 -400)"/></svg>